<svg xmlns="http://www.w3.org/2000/svg" xmlns:xlink="http://www.w3.org/1999/xlink" height="300px" width="300px" fill="#000000" version="1.1" x="0px" y="0px" viewBox="0 0 100 100" enable-background="new 0 0 100 100" xml:space="preserve">
	<g>
		<path d="M49.502,88.995c-21.228,0-38.498-17.271-38.498-38.497C11.004,29.27,28.274,12,49.502,12C70.73,12,88,29.27,88,50.498   C88,71.727,70.729,88.995,49.502,88.995z M49.502,20.555c-16.511,0-29.943,13.433-29.943,29.943   c0,16.51,13.433,29.941,29.943,29.941s29.943-13.433,29.943-29.941C79.445,33.987,66.012,20.555,49.502,20.555z"/>
	</g>
	<path d="M49.5,65.102c2.363,0,4.279,1.914,4.279,4.276c0,2.36-1.916,4.277-4.279,4.277c-2.359,0-4.276-1.917-4.276-4.277  C45.224,67.016,47.141,65.102,49.5,65.102z"/>
	<g>
		<path d="M49.502,61.924c-2.362,0-4.277-1.915-4.277-4.277V31.865c0-2.363,1.915-4.277,4.277-4.277c2.361,0,4.277,1.914,4.277,4.277   v25.781C53.779,60.009,51.863,61.924,49.502,61.924z"/>
	</g>
</svg>
